<svg width="18" height="19" viewBox="0 0 18 19" fill="none" xmlns="http://www.w3.org/2000/svg">
<path fill-rule="evenodd" clip-rule="evenodd" d="M3.75 1.32422C2.09314 1.32422 0.75 2.66736 0.75 4.32422V14.8242C0.75 16.481 2.09314 17.8242 3.75 17.8242H14.25C15.9068 17.8242 17.25 16.481 17.25 14.8242V4.32422C17.25 2.66736 15.9068 1.32422 14.25 1.32422H3.75ZM7.26136 6.02877C7.26136 4.67316 8.36033 3.57422 9.71588 3.57422H11.8977C12.0484 3.57422 12.1705 3.69633 12.1705 3.84695V6.02877C12.1705 6.17939 12.0484 6.30149 11.8977 6.30149H10.8068C10.3549 6.30149 9.98865 6.6678 9.98865 7.11967V7.93785H11.8977C11.9817 7.93785 12.061 7.97655 12.1127 8.04274C12.1644 8.10894 12.1827 8.19527 12.1623 8.27672L11.6168 10.4585C11.5865 10.58 11.4774 10.6651 11.3523 10.6651H9.98865V15.3015C9.98865 15.4521 9.86655 15.5742 9.71588 15.5742H7.53412C7.38346 15.5742 7.26136 15.4521 7.26136 15.3015V10.6651H5.89773C5.74711 10.6651 5.625 10.543 5.625 10.3924V8.21057C5.625 8.05996 5.74711 7.93785 5.89773 7.93785H7.26136V6.02877Z" fill="#6A7C94"/>
</svg>
