<svg width="18" height="19" viewBox="0 0 18 19" fill="none" xmlns="http://www.w3.org/2000/svg">
<path fill-rule="evenodd" clip-rule="evenodd" d="M3.75 1.32422C2.09314 1.32422 0.75 2.66736 0.75 4.32422V14.8242C0.75 16.481 2.09314 17.8242 3.75 17.8242H14.25C15.9068 17.8242 17.25 16.481 17.25 14.8242V4.32422C17.25 2.66736 15.9068 1.32422 14.25 1.32422H3.75ZM3.375 7.32422C3.375 5.46026 4.88604 3.94922 6.75 3.94922H11.25C13.114 3.94922 14.625 5.46026 14.625 7.32422V11.8242C14.625 13.6882 13.114 15.1992 11.25 15.1992H6.75C4.88604 15.1992 3.375 13.6882 3.375 11.8242V7.32422ZM6.75 4.69922C5.30025 4.69922 4.125 5.87447 4.125 7.32422V11.8242C4.125 13.274 5.30025 14.4492 6.75 14.4492H11.25C12.6997 14.4492 13.875 13.274 13.875 11.8242V7.32422C13.875 5.87447 12.6997 4.69922 11.25 4.69922H6.75ZM12.75 6.69922C12.75 7.04439 12.4702 7.32422 12.125 7.32422C11.7798 7.32422 11.5 7.04439 11.5 6.69922C11.5 6.35404 11.7798 6.07422 12.125 6.07422C12.4702 6.07422 12.75 6.35404 12.75 6.69922ZM6.125 9.57422C6.125 7.9864 7.41218 6.69922 9 6.69922C10.5878 6.69922 11.875 7.9864 11.875 9.57422C11.875 11.162 10.5878 12.4492 9 12.4492C7.41218 12.4492 6.125 11.162 6.125 9.57422ZM9 7.44922C7.8264 7.44922 6.875 8.40062 6.875 9.57422C6.875 10.7478 7.8264 11.6992 9 11.6992C10.1736 11.6992 11.125 10.7478 11.125 9.57422C11.125 8.40062 10.1736 7.44922 9 7.44922Z" fill="#6A7C94"/>
</svg>
