<svg width="18" height="19" viewBox="0 0 18 19" fill="none" xmlns="http://www.w3.org/2000/svg">
<path fill-rule="evenodd" clip-rule="evenodd" d="M3.75 1.32422C2.09314 1.32422 0.75 2.66736 0.75 4.32422V14.8242C0.75 16.481 2.09314 17.8242 3.75 17.8242H14.25C15.9068 17.8242 17.25 16.481 17.25 14.8242V4.32422C17.25 2.66736 15.9068 1.32422 14.25 1.32422H3.75ZM4.65341 6.50604C5.35945 6.50604 5.93182 5.93367 5.93182 5.22763C5.93182 4.52158 5.35945 3.94922 4.65341 3.94922C3.94736 3.94922 3.375 4.52158 3.375 5.22763C3.375 5.93367 3.94736 6.50604 4.65341 6.50604ZM5.93182 15.1992V7.52877H3.375V15.1992H5.93182ZM9.25568 7.52877H6.95455V15.1992H9.25568V10.572C9.55215 10.0899 10.0635 9.57422 10.7898 9.57422C11.8125 9.57422 12.0682 10.5969 12.0682 11.1083V15.1992H14.625V11.1083C14.625 9.73802 14.0269 7.52877 11.8125 7.52877C10.4041 7.52877 9.62205 8.0426 9.25568 8.52392V7.52877Z" fill="#6A7C94"/>
</svg>
