<svg width="18" height="19" viewBox="0 0 18 19" fill="none" xmlns="http://www.w3.org/2000/svg">
<path fill-rule="evenodd" clip-rule="evenodd" d="M3.75 1.32422C2.09314 1.32422 0.75 2.66736 0.75 4.32422V14.8242C0.75 16.481 2.09314 17.8242 3.75 17.8242H14.25C15.9068 17.8242 17.25 16.481 17.25 14.8242V4.32422C17.25 2.66736 15.9068 1.32422 14.25 1.32422H3.75ZM13.8572 7.64019C13.9299 10.6261 11.5184 16.6738 3 13.3675C4.12966 13.3675 5.97143 12.9545 6.42857 12.4973C5.76191 12.4021 4.42857 11.9259 4.42857 10.7831H5.57143C5.55268 10.7737 5.533 10.7639 5.51248 10.7537C4.90777 10.4534 3.57142 9.78954 3.57142 8.21162C3.85714 8.49737 4.32443 8.61392 4.71428 8.49737C4.12949 7.98848 2.82989 6.53455 3.85714 5.06877C4.71428 6.02115 6.88571 7.92591 8.71425 7.92591C8.42858 7.16401 8.71425 5.64019 10.1428 5.06877C11.5715 4.49735 12.5932 5.00409 13 5.6402C13.4986 5.60098 13.9462 5.34357 14.2498 5.16892C14.3167 5.13045 14.3766 5.09599 14.4286 5.06877C14.4286 5.08724 14.4286 5.10608 14.4287 5.12526C14.4301 5.53409 14.4319 6.09707 13.8442 6.49733C14.1299 6.71226 14.4286 6.7976 15 6.49733C15 6.98047 14.5491 7.45143 13.8572 7.64019Z" fill="#6A7C94"/>
</svg>
